<svg version="1.1" id="Layer_1" xmlns="http://www.w3.org/2000/svg" xmlns:xlink="http://www.w3.org/1999/xlink" x="0px" y="0px"
	 width="100%" viewBox="0 0 1024 720" enable-background="new 0 0 1024 720" xml:space="preserve">
<path fill="#000000" opacity="1.000000" stroke="none" 
	d="
M238.404175,341.200684 
	C253.462799,336.696228 268.383698,333.342194 283.309326,339.082153 
	C304.298004,347.153687 318.404083,362.468048 325.261505,383.709747 
	C334.454865,412.187408 329.803131,439.010132 312.872498,463.535004 
	C304.628326,475.477020 295.337128,486.582947 281.702118,492.923859 
	C279.144257,494.113403 276.366699,494.893188 273.946777,496.302155 
	C270.259033,498.449371 270.301544,500.677826 274.041962,502.783356 
	C276.984039,504.439453 278.741455,506.616699 278.114532,510.015564 
	C277.526703,513.202576 275.366882,515.724854 272.363129,516.304321 
	C268.980652,516.956970 265.247314,516.678101 262.872925,513.368103 
	C260.868683,510.574127 262.504669,507.980438 263.600922,505.385529 
	C266.017426,499.665375 263.704010,496.526337 257.646942,497.276245 
	C252.826187,497.873108 251.525131,500.527191 253.985687,505.336395 
	C255.725449,508.736816 255.768860,511.611816 252.689041,514.257385 
	C249.717422,516.809998 246.639053,518.434509 242.723969,516.366333 
	C237.877228,513.805969 237.444458,508.576721 241.928909,505.006958 
	C244.052094,503.316833 246.656006,501.867859 245.627090,498.673065 
	C244.658752,495.666290 241.627731,495.706055 239.057037,495.017609 
	C225.294342,491.331787 214.009750,484.445679 206.171112,471.888672 
	C195.463196,454.735229 189.775024,436.367767 189.937729,416.182495 
	C189.959229,413.517487 188.738495,411.877533 186.565063,410.545288 
	C182.164825,407.848022 177.792526,405.095032 173.532227,402.184265 
	C171.576492,400.847961 170.134811,400.722229 168.265884,402.379944 
	C165.670425,404.682007 162.457794,404.899323 159.345428,403.631470 
	C154.673920,401.728485 152.717285,396.982330 154.755569,393.085663 
	C156.836807,389.106873 162.112946,387.714691 166.320343,390.258453 
	C172.145462,393.780365 177.174377,398.460419 183.171707,401.779938 
	C189.005600,405.009003 191.117920,404.330597 192.601974,397.736389 
	C195.833374,383.377869 201.324646,370.187439 211.354797,359.115692 
	C218.776398,350.923370 227.433838,344.708008 238.404175,341.200684 
z"/>
<path fill="#000000" opacity="1.000000" stroke="none" 
	d="
M369.724976,437.585876 
	C370.127197,427.840942 367.568268,418.695618 367.904846,409.343201 
	C368.596466,390.126862 370.176483,371.089294 378.491760,353.330444 
	C384.364532,340.787994 392.224121,329.982300 405.681152,324.761536 
	C425.798981,316.956696 444.723053,326.417938 455.172852,340.613708 
	C465.464569,354.594666 469.179077,370.962097 470.307129,388.011475 
	C470.438965,390.004120 470.265869,392.019073 470.434296,394.006683 
	C470.718536,397.361053 472.142090,398.863159 475.156342,396.201477 
	C480.216705,391.732971 486.087128,387.935669 487.446747,380.456482 
	C488.116791,376.770538 491.310913,376.041626 494.441498,376.255554 
	C497.739594,376.480957 500.093018,378.384827 500.678375,381.769623 
	C501.306122,385.399719 499.666229,388.446075 496.231659,389.138458 
	C487.431671,390.912628 482.247131,397.627441 475.925262,402.866852 
	C471.744904,406.331390 470.282776,410.539948 470.089752,415.955017 
	C469.594635,429.843689 467.148438,443.390533 461.120422,456.116730 
	C456.672302,465.507538 450.451660,473.325958 441.868408,479.267578 
	C437.747803,482.120087 434.986420,485.689270 434.975189,491.208435 
	C434.965729,495.841309 434.988007,499.817627 440.458801,501.455048 
	C442.695648,502.124542 443.667511,504.272278 443.655762,506.647369 
	C443.642853,509.241821 442.357025,511.040466 440.038513,512.157166 
	C436.522430,513.850769 433.155853,513.299683 430.154144,511.113007 
	C427.102539,508.889893 426.192444,505.946411 428.030243,502.350922 
	C428.538269,501.357086 428.668060,500.114044 428.753754,498.969025 
	C429.448029,489.691528 426.322418,487.488922 417.604553,491.063812 
	C412.626556,493.105103 411.805786,498.234436 415.894897,501.748444 
	C420.539062,505.739563 421.157928,508.392548 418.198730,511.624939 
	C414.285156,515.899841 407.813446,516.435730 404.443817,512.541809 
	C401.562958,509.212738 402.591919,505.842529 405.595062,503.338989 
	C408.704376,500.746857 407.865326,497.592316 407.363464,494.609558 
	C406.870239,491.678375 404.117889,491.010406 401.589935,490.684692 
	C390.367615,489.238678 383.671448,481.451630 379.411957,472.426514 
	C374.331848,461.662567 371.236450,449.955048 369.724976,437.585876 
z"/>
<path fill="#000000" opacity="1.000000" stroke="none" 
	d="
M681.259644,481.282349 
	C689.646973,467.533112 692.491943,452.600952 693.780701,437.207153 
	C694.133423,432.993896 692.799561,431.218201 688.248230,431.310242 
	C676.593811,431.545868 664.928528,431.458282 653.272095,431.247742 
	C649.621643,431.181793 648.159119,432.489471 647.046997,436.002319 
	C644.093079,445.333344 641.083679,454.747711 634.515503,462.391174 
	C626.054260,472.237640 614.897156,476.370300 602.312378,477.124054 
	C593.942383,477.625397 585.746887,478.628265 578.245483,482.704224 
	C576.895935,483.437439 575.707397,483.564880 574.660339,482.376709 
	C573.472046,481.028290 573.684875,479.642395 574.813782,478.337463 
	C576.665894,476.196533 579.312256,475.553467 581.825623,474.732269 
	C588.678650,472.493347 595.784180,471.798676 602.933716,471.164154 
	C619.807678,469.666565 632.195251,461.989105 637.906616,445.245819 
	C639.382263,440.919891 642.359558,437.062195 641.928894,432.249084 
	C640.109314,430.853973 638.210205,431.348816 636.431763,431.343750 
	C620.269592,431.297791 604.106934,431.247406 587.945190,431.336243 
	C584.130432,431.357208 580.323486,432.013702 576.504333,432.172089 
	C570.986145,432.401031 570.030640,430.567596 570.312744,425.119232 
	C570.689819,417.835724 570.022644,410.501373 569.884277,403.187347 
	C569.515869,383.706512 569.216919,364.224335 568.808777,344.744385 
	C568.766113,342.706970 569.579651,340.023010 567.030029,338.964294 
	C564.568542,337.942169 563.781799,340.668365 562.324768,341.837860 
	C560.690430,343.149780 559.114136,345.484589 556.893311,343.103546 
	C554.744385,340.799591 556.950500,339.228485 558.425720,337.690002 
	C592.891724,301.746857 627.364563,265.810364 661.823730,229.860733 
	C667.703613,223.726547 670.963257,223.680298 676.599426,228.213867 
	C693.140015,241.518555 706.548584,257.977234 721.844177,272.532990 
	C740.773865,290.547028 759.299133,308.986389 777.970093,327.271606 
	C780.937012,330.177155 783.771118,333.219635 786.626831,336.236450 
	C787.689819,337.359406 788.641785,338.647217 787.352417,340.177612 
	C786.095154,341.669861 784.683105,341.015778 783.311584,340.254242 
	C781.149109,339.053619 779.966614,336.502319 777.314087,335.852997 
	C775.602722,337.533081 776.290955,339.649475 776.310303,341.526764 
	C776.499390,359.833130 777.033142,378.139984 776.931152,396.443695 
	C776.876587,406.244659 777.429199,416.049438 776.718872,425.866028 
	C776.374390,430.626282 774.386658,432.098755 769.858337,432.067596 
	C748.867798,431.923096 727.875671,432.021790 706.884277,431.970795 
	C699.999756,431.954071 699.624817,431.843140 699.170227,438.778992 
	C697.373962,466.185333 685.286133,488.990540 668.652283,510.105743 
	C660.900452,519.946045 651.466553,528.251770 644.118713,538.381348 
	C640.993408,542.689819 638.120544,547.180969 635.109558,551.573059 
	C633.970581,553.234497 632.760376,555.309631 630.391724,553.603455 
	C628.179565,552.010010 629.344604,550.092041 630.546265,548.377625 
	C638.108276,537.588501 646.390991,527.413757 655.447937,517.815308 
	C665.672302,506.979675 673.656738,494.467590 681.259644,481.282349 
M576.088440,403.499786 
	C576.145630,407.830383 576.193970,412.161163 576.262024,416.491577 
	C576.409424,425.875275 576.413330,425.873840 585.571167,425.260773 
	C586.233887,425.216370 586.902466,425.160370 587.563110,425.199310 
	C605.359802,426.247253 623.187073,425.461975 640.985168,426.103424 
	C645.896851,426.280457 647.687439,424.089569 647.622864,419.744171 
	C647.370422,402.747314 649.520935,385.853455 649.725586,368.880096 
	C649.848267,358.704529 649.801819,358.385406 659.568115,358.785400 
	C669.259583,359.182343 678.850159,358.550720 688.446167,357.496765 
	C691.250793,357.188721 693.810120,358.167877 692.750671,361.096039 
	C690.571167,367.119629 691.606873,373.318817 690.744202,379.383728 
	C688.885925,392.448425 688.346497,405.508392 690.918823,418.599457 
	C692.477356,426.530914 692.237671,426.612610 700.508545,426.629791 
	C721.979553,426.674408 743.451538,426.587128 764.920898,426.790039 
	C769.415894,426.832550 770.983643,425.517487 770.946167,420.852844 
	C770.707947,391.203217 770.697571,361.551422 770.746338,331.900513 
	C770.751343,328.869171 769.401733,326.932556 767.449158,325.006897 
	C741.247498,299.165497 715.072754,273.296814 688.857849,247.468842 
	C687.626953,246.256104 686.689453,244.521164 684.709473,244.290451 
	C677.462158,253.670959 668.952454,254.143723 654.322571,245.949249 
	C653.747864,246.395157 653.028198,246.819000 652.476318,247.401703 
	C643.088989,257.312805 633.687134,267.210632 624.359314,277.177643 
	C609.117310,293.464050 592.723633,308.643250 578.027649,325.458832 
	C576.020874,327.755005 575.168884,330.020569 575.218689,333.080444 
	C575.594849,356.218933 575.808105,379.360107 576.088440,403.499786 
M653.241272,407.550232 
	C653.068604,412.195251 653.161499,416.870575 652.635315,421.475189 
	C652.247803,424.866089 653.460388,425.840363 656.609436,426.112427 
	C664.418152,426.786926 672.195862,426.660736 679.994934,426.062225 
	C685.553284,425.635651 686.528748,424.748901 685.427856,419.398193 
	C683.055054,407.864838 683.366211,396.315491 684.579712,384.703766 
	C685.281189,377.991974 686.409851,371.268036 685.305725,364.218567 
	C676.552307,363.921539 668.006042,365.891052 659.396484,364.553772 
	C656.414917,364.090607 655.149475,366.198364 655.028015,369.256805 
	C654.533630,381.699280 653.867493,394.134918 653.241272,407.550232 
z"/>
<path fill="#000000" opacity="1.000000" stroke="none" 
	d="
M843.226624,340.959381 
	C840.499695,339.769501 840.457092,339.768005 840.329773,343.397614 
	C839.945557,354.353668 839.597412,365.310974 839.235535,376.267792 
	C839.107971,380.128906 837.546753,383.352478 834.791687,385.995697 
	C833.581482,387.156708 832.152832,387.426575 830.723633,386.341034 
	C829.283813,385.247406 828.966614,383.681824 830.138245,382.425354 
	C832.811401,379.558899 832.833618,376.079834 832.802490,372.583618 
	C832.723816,363.753815 833.122742,354.946289 833.714661,346.140015 
	C833.830505,344.416779 834.466125,341.900208 832.148804,341.432220 
	C829.723328,340.942413 827.188904,339.486206 824.518616,341.416473 
	C815.511353,347.927856 803.780334,346.734100 795.911194,338.809296 
	C790.872681,333.735046 791.910767,327.700470 793.550659,321.947968 
	C794.545593,318.458130 794.198242,316.428101 791.184082,314.463562 
	C787.175476,311.850891 785.606506,308.052887 786.567871,303.233490 
	C787.066040,300.736115 786.679016,298.313477 785.498413,295.965637 
	C782.937683,290.873169 783.699402,285.921478 786.682007,281.284912 
	C787.941467,279.327057 788.619141,277.917908 786.947388,275.577209 
	C784.269043,271.827087 785.051697,267.646210 787.115295,263.749939 
	C787.972534,262.131348 789.174683,260.681854 788.323059,258.663849 
	C785.020020,250.836563 788.632751,244.728455 793.482788,239.127502 
	C796.824158,235.268738 800.312927,232.144943 802.237000,226.696426 
	C805.034790,218.774124 812.173584,213.638107 820.340942,210.577911 
	C824.859741,208.884796 829.252808,208.908188 834.032715,209.607834 
	C838.742554,210.297241 843.770874,210.670517 848.467285,208.899704 
	C853.454590,207.019241 857.972290,207.506500 861.906738,211.199722 
	C864.274170,213.422058 867.423340,213.386856 870.211121,214.351349 
	C874.617981,215.875992 878.487427,217.995407 880.462463,222.439056 
	C881.594727,224.986435 883.780579,225.969635 886.028625,227.111511 
	C895.973083,232.162704 899.036987,240.544449 894.458008,250.791840 
	C893.441711,253.066345 893.935181,254.482391 895.250488,256.168121 
	C897.608276,259.189941 898.947144,262.741486 898.035767,266.448120 
	C897.201355,269.841614 898.330322,272.177826 900.315979,274.599060 
	C905.740540,281.213531 905.650330,288.211182 901.737610,295.532715 
	C900.095032,298.606384 898.737854,301.838257 897.350891,305.041473 
	C895.483704,309.353943 892.604431,312.873230 888.206604,314.441162 
	C885.222046,315.505188 883.525452,317.049164 882.537292,319.991730 
	C880.599121,325.763550 876.454346,329.347382 870.676147,331.182770 
	C865.586121,332.799622 860.404419,333.971344 855.114807,334.642120 
	C851.215576,335.136566 849.195251,336.959412 849.297852,341.183777 
	C849.592773,353.326385 850.023560,365.455017 851.193176,377.551392 
	C851.399170,379.680817 852.467102,381.260468 853.689026,382.872772 
	C854.486084,383.924377 855.278015,385.203918 854.051880,386.454468 
	C852.936279,387.592255 851.594421,387.220825 850.353943,386.600616 
	C846.668640,384.758057 845.489075,381.235107 844.741150,377.627777 
	C842.762085,368.082428 843.906616,358.382477 843.558289,348.753967 
	C843.468079,346.262207 843.378540,343.770477 843.226624,340.959381 
M852.061829,328.616638 
	C856.705383,329.273346 860.841248,326.993164 865.258240,326.329437 
	C872.679749,325.214142 877.346313,321.076996 878.726868,313.600800 
	C879.302307,310.485168 881.074646,309.016235 884.133057,308.752747 
	C887.484314,308.464020 889.815247,306.343109 890.932251,303.522491 
	C892.782715,298.849640 895.220764,294.534821 897.667053,290.190308 
	C898.848022,288.092926 899.294006,285.674561 898.581970,283.410583 
	C897.467773,279.868134 895.235840,276.948853 892.507874,274.413544 
	C891.019165,273.030029 889.236511,271.303070 890.586792,269.274719 
	C894.149780,263.922577 891.482117,260.241455 887.803345,256.626678 
	C885.697937,254.557938 885.589417,252.666992 887.559509,250.125885 
	C893.115784,242.959152 891.973083,237.005661 884.171326,232.946304 
	C880.271912,230.917389 876.437805,229.387878 875.204041,224.470840 
	C874.729797,222.580582 872.387024,221.758530 870.508484,221.021896 
	C865.818481,219.182785 860.486938,218.998962 856.645874,214.934311 
	C855.239075,213.445557 852.823364,214.131973 850.946106,214.992920 
	C844.968994,217.734116 838.000183,214.265808 832.145569,217.992493 
	C831.788452,218.219849 830.545471,217.541275 830.052002,216.984970 
	C827.863708,214.518005 825.331726,215.054459 822.702637,215.904251 
	C816.422729,217.934097 811.751221,222.094360 807.811584,227.194931 
	C806.779907,228.530701 805.790955,230.118210 806.617737,231.803406 
	C808.794067,236.239212 806.772522,237.903748 802.691589,239.360977 
	C794.909912,242.139633 790.242432,251.266022 793.643127,257.193054 
	C795.692322,260.764526 795.505493,263.094849 792.661804,265.910492 
	C789.599060,268.943054 789.490112,272.027527 793.737610,274.377594 
	C797.794250,276.622070 796.950623,278.905487 794.106201,281.753082 
	C788.606506,287.258942 788.349426,289.632629 791.967834,296.268311 
	C792.895142,297.968872 793.188110,299.453796 792.697571,301.438538 
	C791.284058,307.157318 792.431274,309.191254 797.792114,311.640228 
	C803.084717,314.058014 803.338135,314.746063 800.780396,319.754059 
	C795.872742,329.363220 797.313904,333.702698 806.913330,338.196167 
	C807.515320,338.477966 808.157776,338.674927 808.754211,338.966919 
	C813.602051,341.340210 817.730835,340.658661 821.105957,336.233765 
	C822.451233,334.470062 824.046082,333.070343 826.606506,333.609772 
	C834.247864,335.219666 841.360718,334.457428 847.435425,328.928284 
	C848.494263,327.964569 849.946838,328.240631 852.061829,328.616638 
z"/>
<path fill="#000000" opacity="1.000000" stroke="none" 
	d="
M164.872803,260.334778 
	C159.377274,261.805908 154.207443,261.447754 149.071014,261.040314 
	C147.335434,260.902679 145.014694,260.470062 145.087372,258.099823 
	C145.164291,255.591324 147.486343,255.411636 149.249084,255.762131 
	C173.633041,260.610321 196.016037,234.846375 198.619308,209.205399 
	C199.152008,203.958481 198.463501,198.909058 195.229828,194.465836 
	C194.254776,193.126099 193.054016,191.566925 194.976181,190.136673 
	C197.031235,188.607498 198.729126,189.508636 200.060883,191.375488 
	C204.286942,197.299744 205.134995,204.104416 204.156464,210.956512 
	C200.748550,234.819977 188.280838,251.741791 164.872803,260.334778 
z"/>
<path fill="#000000" opacity="1.000000" stroke="none" 
	d="
M213.660950,183.503815 
	C222.200378,181.298203 230.373291,179.242386 238.536255,177.147827 
	C240.352707,176.681747 242.010666,176.776688 242.517685,178.841339 
	C243.058685,181.044510 241.740372,182.187408 239.651459,182.639008 
	C234.317581,183.792068 229.002808,185.035614 223.659973,186.144485 
	C220.240692,186.854111 216.904831,187.767212 213.777847,189.343979 
	C211.785706,190.348495 209.515625,191.517792 208.216873,188.817139 
	C206.832489,185.938492 209.528610,185.244110 211.432724,184.335770 
	C212.027435,184.052063 212.670105,183.868851 213.660950,183.503815 
z"/>
<path fill="#000000" opacity="1.000000" stroke="none" 
	d="
M236.426880,214.568542 
	C228.802505,213.256744 221.598709,212.331268 214.366592,214.383423 
	C212.454147,214.926071 210.512955,214.741272 209.968430,212.468048 
	C209.449554,210.301895 211.328796,209.667725 212.922119,209.200882 
	C222.023727,206.534210 230.961853,208.393005 239.865173,210.363083 
	C241.127716,210.642441 242.516113,211.579025 241.872513,213.227509 
	C240.898346,215.722687 238.845459,215.308487 236.426880,214.568542 
z"/>
<path fill="#000000" opacity="1.000000" stroke="none" 
	d="
M173.630264,281.350891 
	C171.252975,275.828064 168.959244,270.682678 166.847824,265.463531 
	C166.257614,264.004639 165.536423,262.015411 167.622467,261.112579 
	C169.801804,260.169373 170.974075,261.698700 171.741440,263.543274 
	C174.793442,270.879578 177.841843,278.217407 180.891220,285.554810 
	C181.566360,287.179321 182.051331,288.910919 180.054382,289.852142 
	C177.966125,290.836395 177.046188,289.145020 176.320511,287.632965 
	C175.390717,285.695679 174.621292,283.681488 173.630264,281.350891 
z"/>
<path fill="#000000" opacity="1.000000" stroke="none" 
	d="
M207.032990,234.554108 
	C213.106750,238.434784 218.863678,242.099701 224.549255,245.872192 
	C226.153046,246.936356 228.310776,248.084244 226.490555,250.570740 
	C224.988098,252.623138 223.244080,251.623642 221.669403,250.589340 
	C215.825134,246.750687 210.001587,242.880325 204.185760,238.998611 
	C202.938705,238.166275 201.341080,237.203323 202.026520,235.493912 
	C202.914246,233.279907 204.846161,233.586227 207.032990,234.554108 
z"/>
<path fill="#000000" opacity="1.000000" stroke="none" 
	d="
M191.639816,251.082413 
	C196.171936,255.513092 200.510361,259.623474 204.615753,263.954742 
	C206.134430,265.556946 208.166260,267.814789 205.486069,269.890991 
	C203.034149,271.790314 201.807053,269.285858 200.348495,267.717621 
	C196.400620,263.472900 192.316589,259.355164 188.323807,255.151718 
	C187.246490,254.017563 185.287476,252.975006 186.550308,251.066406 
	C187.847122,249.106537 189.690582,249.745117 191.639816,251.082413 
z"/>
<path fill="#000000" opacity="1.000000" stroke="none" 
	d="
M631.079346,366.806580 
	C633.812744,368.084808 633.377869,370.272522 633.344360,372.192566 
	C633.138062,384.014801 633.483154,395.814728 634.685303,407.579254 
	C635.003723,410.696259 633.855103,412.079529 630.656372,412.481750 
	C618.675842,413.988098 606.740662,412.413910 594.791138,412.162537 
	C590.025024,412.062286 589.970459,408.361237 590.282593,404.885803 
	C590.936951,397.600037 591.996460,390.352875 591.733826,382.996277 
	C591.585327,378.835571 591.627380,374.690430 590.611816,370.599213 
	C589.978271,368.046753 590.320435,365.665131 593.732178,365.804993 
	C606.031250,366.309143 618.374695,364.966003 631.079346,366.806580 
M625.841003,388.472839 
	C629.612122,385.549744 627.739258,381.420532 627.854614,377.860443 
	C628.014709,372.920166 626.470215,372.337311 619.163879,372.226868 
	C614.881958,372.162109 614.196289,374.320831 614.314819,377.846924 
	C614.677246,388.632629 612.182190,388.918030 625.841003,388.472839 
M608.921814,378.612885 
	C609.129150,374.831329 608.981812,371.701111 603.580017,372.209442 
	C597.833496,372.750244 597.069641,373.217651 597.199219,379.038086 
	C597.221252,380.028015 597.242004,381.018494 597.294922,382.007050 
	C597.531738,386.432709 599.592651,387.855377 605.008118,387.850677 
	C609.434204,387.846863 608.919800,384.812683 608.954407,382.015228 
	C608.964600,381.190948 608.913757,380.365906 608.921814,378.612885 
M613.776733,399.202057 
	C612.905823,406.611237 613.183350,406.923096 620.530396,406.787872 
	C621.361755,406.772552 622.194458,406.715790 623.024170,406.745300 
	C627.134827,406.891418 628.920776,405.307159 628.844238,400.826569 
	C628.769531,396.449707 627.152771,394.512695 622.978088,395.115631 
	C619.802063,395.574280 615.265076,392.700684 613.776733,399.202057 
M597.266541,396.110870 
	C596.531433,397.998077 596.247375,399.953796 596.255249,401.977966 
	C596.263367,404.053497 596.908875,405.821716 599.207397,405.802612 
	C602.021240,405.779266 605.724670,407.464752 607.314636,404.100189 
	C608.498779,401.594391 609.740601,397.811554 607.027283,395.692169 
	C604.395386,393.636353 600.800720,392.302277 597.266541,396.110870 
z"/>
<path fill="#000000" opacity="1.000000" stroke="none" 
	d="
M706.392944,410.284668 
	C704.037170,409.117706 704.058411,407.355011 704.356689,405.447723 
	C706.112976,394.218903 706.361511,382.913269 705.754456,371.597076 
	C705.558289,367.939331 707.054626,365.826385 710.471863,366.249695 
	C721.841553,367.658081 732.935486,364.232971 744.226318,364.682556 
	C749.425171,364.889618 751.122375,366.493896 749.626343,371.505219 
	C746.276062,382.727997 747.557556,393.886719 749.070374,405.117737 
	C749.485840,408.202026 749.275024,411.260132 745.074463,410.814301 
	C736.247253,409.877502 727.466003,410.380371 718.678101,411.096222 
	C714.657471,411.423737 710.725342,410.717621 706.392944,410.284668 
M730.329468,383.228333 
	C730.453003,384.991211 730.013367,386.882233 732.504639,387.646729 
	C739.036316,389.651123 742.456055,387.336365 742.769470,380.626373 
	C742.877686,378.308807 743.241882,376.000214 743.552368,373.696014 
	C743.781250,371.997101 743.457092,370.878815 741.509766,370.398163 
	C735.071716,368.809143 730.413147,372.264252 730.322815,378.838806 
	C730.306824,380.003479 730.320984,381.168518 730.329468,383.228333 
M711.323975,381.338135 
	C711.089722,384.617126 711.549133,386.912628 715.792847,387.351196 
	C723.406555,388.138123 724.765442,387.236847 724.839417,379.541138 
	C724.853638,378.056396 724.844910,376.569946 724.788391,375.086487 
	C724.740601,373.832031 724.186829,372.959076 722.913391,372.487946 
	C715.822327,369.864746 711.304199,372.947815 711.323975,381.338135 
M713.452881,393.642914 
	C710.577454,394.676300 711.168274,397.439026 710.593262,399.559113 
	C709.562866,403.358490 710.928711,405.345734 715.085815,404.946503 
	C716.077026,404.851318 717.083862,404.928864 718.082764,404.901184 
	C723.674805,404.746307 724.485779,403.601105 724.747437,397.565735 
	C724.985779,392.068512 721.127930,393.613647 718.261841,393.389557 
	C716.940552,393.286224 715.600220,393.425476 713.452881,393.642914 
M736.503418,394.293396 
	C734.412842,394.651367 731.696655,393.085388 730.482910,396.158173 
	C728.390930,401.454681 730.520264,404.657959 736.169189,404.747803 
	C737.816284,404.774017 739.465088,404.741943 741.112183,404.700165 
	C742.160583,404.673584 743.006226,404.315216 743.444336,403.232574 
	C745.015320,399.349945 741.629333,394.325745 736.503418,394.293396 
z"/>
</svg>